<svg version="1.1" xmlns="http://www.w3.org/2000/svg" xmlns:xlink="http://www.w3.org/1999/xlink" width="748" height="356"><defs/><g><text fill="#eeeeee" stroke="none" font-family="Arial" font-size="24px" font-style="normal" font-weight="normal" text-decoration="none" x="0" y="0">UNREGISTERED</text><text fill="#eeeeee" stroke="none" font-family="Arial" font-size="24px" font-style="normal" font-weight="normal" text-decoration="none" x="0" y="30">UNREGISTERED</text><text fill="#eeeeee" stroke="none" font-family="Arial" font-size="24px" font-style="normal" font-weight="normal" text-decoration="none" x="0" y="60">UNREGISTERED</text><text fill="#eeeeee" stroke="none" font-family="Arial" font-size="24px" font-style="normal" font-weight="normal" text-decoration="none" x="0" y="90">UNREGISTERED</text><text fill="#eeeeee" stroke="none" font-family="Arial" font-size="24px" font-style="normal" font-weight="normal" text-decoration="none" x="0" y="120">UNREGISTERED</text><text fill="#eeeeee" stroke="none" font-family="Arial" font-size="24px" font-style="normal" font-weight="normal" text-decoration="none" x="0" y="150">UNREGISTERED</text><text fill="#eeeeee" stroke="none" font-family="Arial" font-size="24px" font-style="normal" font-weight="normal" text-decoration="none" x="0" y="180">UNREGISTERED</text><text fill="#eeeeee" stroke="none" font-family="Arial" font-size="24px" font-style="normal" font-weight="normal" text-decoration="none" x="0" y="210">UNREGISTERED</text><text fill="#eeeeee" stroke="none" font-family="Arial" font-size="24px" font-style="normal" font-weight="normal" text-decoration="none" x="0" y="240">UNREGISTERED</text><text fill="#eeeeee" stroke="none" font-family="Arial" font-size="24px" font-style="normal" font-weight="normal" text-decoration="none" x="0" y="270">UNREGISTERED</text><text fill="#eeeeee" stroke="none" font-family="Arial" font-size="24px" font-style="normal" font-weight="normal" text-decoration="none" x="0" y="300">UNREGISTERED</text><text fill="#eeeeee" stroke="none" font-family="Arial" font-size="24px" font-style="normal" font-weight="normal" text-decoration="none" x="0" y="330">UNREGISTERED</text><text fill="#eeeeee" stroke="none" font-family="Arial" font-size="24px" font-style="normal" font-weight="normal" text-decoration="none" x="200" y="0">UNREGISTERED</text><text fill="#eeeeee" stroke="none" font-family="Arial" font-size="24px" font-style="normal" font-weight="normal" text-decoration="none" x="200" y="30">UNREGISTERED</text><text fill="#eeeeee" stroke="none" font-family="Arial" font-size="24px" font-style="normal" font-weight="normal" text-decoration="none" x="200" y="60">UNREGISTERED</text><text fill="#eeeeee" stroke="none" font-family="Arial" font-size="24px" font-style="normal" font-weight="normal" text-decoration="none" x="200" y="90">UNREGISTERED</text><text fill="#eeeeee" stroke="none" font-family="Arial" font-size="24px" font-style="normal" font-weight="normal" text-decoration="none" x="200" y="120">UNREGISTERED</text><text fill="#eeeeee" stroke="none" font-family="Arial" font-size="24px" font-style="normal" font-weight="normal" text-decoration="none" x="200" y="150">UNREGISTERED</text><text fill="#eeeeee" stroke="none" font-family="Arial" font-size="24px" font-style="normal" font-weight="normal" text-decoration="none" x="200" y="180">UNREGISTERED</text><text fill="#eeeeee" stroke="none" font-family="Arial" font-size="24px" font-style="normal" font-weight="normal" text-decoration="none" x="200" y="210">UNREGISTERED</text><text fill="#eeeeee" stroke="none" font-family="Arial" font-size="24px" font-style="normal" font-weight="normal" text-decoration="none" x="200" y="240">UNREGISTERED</text><text fill="#eeeeee" stroke="none" font-family="Arial" font-size="24px" font-style="normal" font-weight="normal" text-decoration="none" x="200" y="270">UNREGISTERED</text><text fill="#eeeeee" stroke="none" font-family="Arial" font-size="24px" font-style="normal" font-weight="normal" text-decoration="none" x="200" y="300">UNREGISTERED</text><text fill="#eeeeee" stroke="none" font-family="Arial" font-size="24px" font-style="normal" font-weight="normal" text-decoration="none" x="200" y="330">UNREGISTERED</text><text fill="#eeeeee" stroke="none" font-family="Arial" font-size="24px" font-style="normal" font-weight="normal" text-decoration="none" x="400" y="0">UNREGISTERED</text><text fill="#eeeeee" stroke="none" font-family="Arial" font-size="24px" font-style="normal" font-weight="normal" text-decoration="none" x="400" y="30">UNREGISTERED</text><text fill="#eeeeee" stroke="none" font-family="Arial" font-size="24px" font-style="normal" font-weight="normal" text-decoration="none" x="400" y="60">UNREGISTERED</text><text fill="#eeeeee" stroke="none" font-family="Arial" font-size="24px" font-style="normal" font-weight="normal" text-decoration="none" x="400" y="90">UNREGISTERED</text><text fill="#eeeeee" stroke="none" font-family="Arial" font-size="24px" font-style="normal" font-weight="normal" text-decoration="none" x="400" y="120">UNREGISTERED</text><text fill="#eeeeee" stroke="none" font-family="Arial" font-size="24px" font-style="normal" font-weight="normal" text-decoration="none" x="400" y="150">UNREGISTERED</text><text fill="#eeeeee" stroke="none" font-family="Arial" font-size="24px" font-style="normal" font-weight="normal" text-decoration="none" x="400" y="180">UNREGISTERED</text><text fill="#eeeeee" stroke="none" font-family="Arial" font-size="24px" font-style="normal" font-weight="normal" text-decoration="none" x="400" y="210">UNREGISTERED</text><text fill="#eeeeee" stroke="none" font-family="Arial" font-size="24px" font-style="normal" font-weight="normal" text-decoration="none" x="400" y="240">UNREGISTERED</text><text fill="#eeeeee" stroke="none" font-family="Arial" font-size="24px" font-style="normal" font-weight="normal" text-decoration="none" x="400" y="270">UNREGISTERED</text><text fill="#eeeeee" stroke="none" font-family="Arial" font-size="24px" font-style="normal" font-weight="normal" text-decoration="none" x="400" y="300">UNREGISTERED</text><text fill="#eeeeee" stroke="none" font-family="Arial" font-size="24px" font-style="normal" font-weight="normal" text-decoration="none" x="400" y="330">UNREGISTERED</text><text fill="#eeeeee" stroke="none" font-family="Arial" font-size="24px" font-style="normal" font-weight="normal" text-decoration="none" x="600" y="0">UNREGISTERED</text><text fill="#eeeeee" stroke="none" font-family="Arial" font-size="24px" font-style="normal" font-weight="normal" text-decoration="none" x="600" y="30">UNREGISTERED</text><text fill="#eeeeee" stroke="none" font-family="Arial" font-size="24px" font-style="normal" font-weight="normal" text-decoration="none" x="600" y="60">UNREGISTERED</text><text fill="#eeeeee" stroke="none" font-family="Arial" font-size="24px" font-style="normal" font-weight="normal" text-decoration="none" x="600" y="90">UNREGISTERED</text><text fill="#eeeeee" stroke="none" font-family="Arial" font-size="24px" font-style="normal" font-weight="normal" text-decoration="none" x="600" y="120">UNREGISTERED</text><text fill="#eeeeee" stroke="none" font-family="Arial" font-size="24px" font-style="normal" font-weight="normal" text-decoration="none" x="600" y="150">UNREGISTERED</text><text fill="#eeeeee" stroke="none" font-family="Arial" font-size="24px" font-style="normal" font-weight="normal" text-decoration="none" x="600" y="180">UNREGISTERED</text><text fill="#eeeeee" stroke="none" font-family="Arial" font-size="24px" font-style="normal" font-weight="normal" text-decoration="none" x="600" y="210">UNREGISTERED</text><text fill="#eeeeee" stroke="none" font-family="Arial" font-size="24px" font-style="normal" font-weight="normal" text-decoration="none" x="600" y="240">UNREGISTERED</text><text fill="#eeeeee" stroke="none" font-family="Arial" font-size="24px" font-style="normal" font-weight="normal" text-decoration="none" x="600" y="270">UNREGISTERED</text><text fill="#eeeeee" stroke="none" font-family="Arial" font-size="24px" font-style="normal" font-weight="normal" text-decoration="none" x="600" y="300">UNREGISTERED</text><text fill="#eeeeee" stroke="none" font-family="Arial" font-size="24px" font-style="normal" font-weight="normal" text-decoration="none" x="600" y="330">UNREGISTERED</text><g transform="translate(10,2) scale(1,1)"><path fill="none" stroke="#000000" d="M 0 8 L 728 8 L 728 344 L 0 344 L 0 8" stroke-miterlimit="10"/></g><g transform="translate(10,2) scale(1,1)"><path fill="#ffffff" stroke="none" d="M 0 8 L 0 30 L 148.2216796875 30 L 159.2216796875 19 L 159.2216796875 8 L 0 8"/></g><g transform="translate(10,2) scale(1,1)"><path fill="none" stroke="#000000" d="M 0 8 L 0 30 L 148.2216796875 30 L 159.2216796875 19 L 159.2216796875 8 L 0 8 L 0 8" stroke-miterlimit="10"/></g><g transform="translate(10,2) scale(1,1)"><g><path fill="none" stroke="none"/><text fill="#000000" stroke="none" font-family="Arial" font-size="13px" font-style="normal" font-weight="normal" text-decoration="none" x="24.72998046875" y="24">UC06 - Editar cartão</text></g></g><g transform="translate(10,2) scale(1,1)"><g><path fill="none" stroke="none"/><text fill="#000000" stroke="none" font-family="Arial" font-size="13px" font-style="normal" font-weight="bold" text-decoration="none" x="4.279541015625" y="24">sd</text></g></g><g transform="translate(10,2) scale(1,1)"><path fill="#ffffff" stroke="none" d="M 76.6099715909091 47.3 C 76.6099715909091 43.82060576 79.48837331309092 41 83.0390625 41 C 86.58975168690908 41 89.4681534090909 43.82060576 89.4681534090909 47.3 C 89.4681534090909 50.779394239999995 86.58975168690908 53.6 83.0390625 53.6 C 79.48837331309092 53.6 76.6099715909091 50.779394239999995 76.6099715909091 47.3 Z"/></g><g transform="translate(10,2) scale(1,1)"><path fill="none" stroke="#000000" d="M 76.6099715909091 47.3 C 76.6099715909091 43.82060576 79.48837331309092 41 83.0390625 41 C 86.58975168690908 41 89.4681534090909 43.82060576 89.4681534090909 47.3 C 89.4681534090909 50.779394239999995 86.58975168690908 53.6 83.0390625 53.6 C 79.48837331309092 53.6 76.6099715909091 50.779394239999995 76.6099715909091 47.3 Z" stroke-miterlimit="10"/></g><g transform="translate(10,2) scale(1,1)"><path fill="none" stroke="#000000" d="M 83.0390625 53.6 L 83.0390625 66.4" stroke-miterlimit="10"/></g><g transform="translate(10,2) scale(1,1)"><path fill="none" stroke="#000000" d="M 76.23178977272727 58.4 L 89.84633522727273 58.4" stroke-miterlimit="10"/></g><g transform="translate(10,2) scale(1,1)"><path fill="none" stroke="#000000" d="M 83.0390625 66.4 L 73.58451704545455 79" stroke-miterlimit="10"/></g><g transform="translate(10,2) scale(1,1)"><path fill="none" stroke="#000000" d="M 83.0390625 66.4 L 92.49360795454545 79" stroke-miterlimit="10"/></g><g transform="translate(10,2) scale(1,1)"><g><path fill="none" stroke="none"/><text fill="#000000" stroke="none" font-family="Arial" font-size="13px" font-style="normal" font-weight="bold" text-decoration="none" x="32.172119140625" y="98">William: Usuário</text></g></g><g transform="translate(10,2) scale(1,1)"><path fill="none" stroke="#000000" d="M 84.5 105 L 84.5 216" stroke-miterlimit="10" stroke-dasharray="3"/></g><g transform="translate(10,2) scale(1,1)"><rect fill="#C0C0C0" stroke="none" x="487" y="47" width="71.736328125" height="39" opacity="0.2"/></g><g transform="translate(10,2) scale(1,1)"><rect fill="#ffffff" stroke="none" x="480" y="40" width="71.736328125" height="39"/></g><g transform="translate(10,2) scale(1,1)"><path fill="none" stroke="#000000" d="M 480 40 L 551.736328125 40 L 551.736328125 79 L 480 79 L 480 40 Z Z" stroke-miterlimit="10"/></g><g transform="translate(10,2) scale(1,1)"><g><path fill="none" stroke="none"/><text fill="#000000" stroke="none" font-family="Arial" font-size="13px" font-style="normal" font-weight="bold" text-decoration="none" x="495.279541015625" y="58">Cartão</text></g></g><g transform="translate(10,2) scale(1,1)"><path fill="none" stroke="#000000" d="M 516.5 80 L 516.5 216" stroke-miterlimit="10" stroke-dasharray="3"/></g><g transform="translate(10,2) scale(1,1)"><path fill="none" stroke="#000000" d="M 84 123 L 509 123" stroke-miterlimit="10"/></g><g transform="translate(10,2) scale(1,1)"><path fill="none" stroke="#000000" d="M 498.83732514237585 127.20951775601598 L 509 123 L 498.83732514237585 118.79048224398402" stroke-miterlimit="10"/></g><g transform="translate(10,2) scale(1,1)"><g><path fill="none" stroke="none"/><text fill="#000000" stroke="none" font-family="Arial" font-size="13px" font-style="normal" font-weight="normal" text-decoration="none" x="265.90087890625" y="118">1 : editar()</text></g></g><g transform="translate(10,2) scale(1,1)"><rect fill="#ffffff" stroke="none" x="509" y="123" width="13" height="28"/></g><g transform="translate(10,2) scale(1,1)"><path fill="none" stroke="#000000" d="M 509 123 L 522 123 L 522 151 L 509 151 L 509 123 Z Z" stroke-miterlimit="10"/></g><g transform="translate(10,2) scale(1,1)"><path fill="none" stroke="#000000" d="M 509 138 L 84 138" stroke-miterlimit="10" stroke-dasharray="3"/></g><g transform="translate(10,2) scale(1,1)"><path fill="none" stroke="#000000" d="M 94.16267485762415 133.790482243984 L 84 138 L 94.16267485762415 142.209517756016" stroke-miterlimit="10"/></g><g transform="translate(10,2) scale(1,1)"><g><path fill="none" stroke="none"/><text fill="#000000" stroke="none" font-family="Arial" font-size="13px" font-style="normal" font-weight="normal" text-decoration="none" x="108.5" y="153">2 : Dados(descrição/apelido) do cartão atualizados com sucesso</text></g></g></g></svg>