<svg version="1.1" xmlns="http://www.w3.org/2000/svg" xmlns:xlink="http://www.w3.org/1999/xlink" width="580" height="324"><defs/><g><text fill="#eeeeee" stroke="none" font-family="Arial" font-size="24px" font-style="normal" font-weight="normal" text-decoration="none" x="0" y="0">UNREGISTERED</text><text fill="#eeeeee" stroke="none" font-family="Arial" font-size="24px" font-style="normal" font-weight="normal" text-decoration="none" x="0" y="30">UNREGISTERED</text><text fill="#eeeeee" stroke="none" font-family="Arial" font-size="24px" font-style="normal" font-weight="normal" text-decoration="none" x="0" y="60">UNREGISTERED</text><text fill="#eeeeee" stroke="none" font-family="Arial" font-size="24px" font-style="normal" font-weight="normal" text-decoration="none" x="0" y="90">UNREGISTERED</text><text fill="#eeeeee" stroke="none" font-family="Arial" font-size="24px" font-style="normal" font-weight="normal" text-decoration="none" x="0" y="120">UNREGISTERED</text><text fill="#eeeeee" stroke="none" font-family="Arial" font-size="24px" font-style="normal" font-weight="normal" text-decoration="none" x="0" y="150">UNREGISTERED</text><text fill="#eeeeee" stroke="none" font-family="Arial" font-size="24px" font-style="normal" font-weight="normal" text-decoration="none" x="0" y="180">UNREGISTERED</text><text fill="#eeeeee" stroke="none" font-family="Arial" font-size="24px" font-style="normal" font-weight="normal" text-decoration="none" x="0" y="210">UNREGISTERED</text><text fill="#eeeeee" stroke="none" font-family="Arial" font-size="24px" font-style="normal" font-weight="normal" text-decoration="none" x="0" y="240">UNREGISTERED</text><text fill="#eeeeee" stroke="none" font-family="Arial" font-size="24px" font-style="normal" font-weight="normal" text-decoration="none" x="0" y="270">UNREGISTERED</text><text fill="#eeeeee" stroke="none" font-family="Arial" font-size="24px" font-style="normal" font-weight="normal" text-decoration="none" x="0" y="300">UNREGISTERED</text><text fill="#eeeeee" stroke="none" font-family="Arial" font-size="24px" font-style="normal" font-weight="normal" text-decoration="none" x="200" y="0">UNREGISTERED</text><text fill="#eeeeee" stroke="none" font-family="Arial" font-size="24px" font-style="normal" font-weight="normal" text-decoration="none" x="200" y="30">UNREGISTERED</text><text fill="#eeeeee" stroke="none" font-family="Arial" font-size="24px" font-style="normal" font-weight="normal" text-decoration="none" x="200" y="60">UNREGISTERED</text><text fill="#eeeeee" stroke="none" font-family="Arial" font-size="24px" font-style="normal" font-weight="normal" text-decoration="none" x="200" y="90">UNREGISTERED</text><text fill="#eeeeee" stroke="none" font-family="Arial" font-size="24px" font-style="normal" font-weight="normal" text-decoration="none" x="200" y="120">UNREGISTERED</text><text fill="#eeeeee" stroke="none" font-family="Arial" font-size="24px" font-style="normal" font-weight="normal" text-decoration="none" x="200" y="150">UNREGISTERED</text><text fill="#eeeeee" stroke="none" font-family="Arial" font-size="24px" font-style="normal" font-weight="normal" text-decoration="none" x="200" y="180">UNREGISTERED</text><text fill="#eeeeee" stroke="none" font-family="Arial" font-size="24px" font-style="normal" font-weight="normal" text-decoration="none" x="200" y="210">UNREGISTERED</text><text fill="#eeeeee" stroke="none" font-family="Arial" font-size="24px" font-style="normal" font-weight="normal" text-decoration="none" x="200" y="240">UNREGISTERED</text><text fill="#eeeeee" stroke="none" font-family="Arial" font-size="24px" font-style="normal" font-weight="normal" text-decoration="none" x="200" y="270">UNREGISTERED</text><text fill="#eeeeee" stroke="none" font-family="Arial" font-size="24px" font-style="normal" font-weight="normal" text-decoration="none" x="200" y="300">UNREGISTERED</text><text fill="#eeeeee" stroke="none" font-family="Arial" font-size="24px" font-style="normal" font-weight="normal" text-decoration="none" x="400" y="0">UNREGISTERED</text><text fill="#eeeeee" stroke="none" font-family="Arial" font-size="24px" font-style="normal" font-weight="normal" text-decoration="none" x="400" y="30">UNREGISTERED</text><text fill="#eeeeee" stroke="none" font-family="Arial" font-size="24px" font-style="normal" font-weight="normal" text-decoration="none" x="400" y="60">UNREGISTERED</text><text fill="#eeeeee" stroke="none" font-family="Arial" font-size="24px" font-style="normal" font-weight="normal" text-decoration="none" x="400" y="90">UNREGISTERED</text><text fill="#eeeeee" stroke="none" font-family="Arial" font-size="24px" font-style="normal" font-weight="normal" text-decoration="none" x="400" y="120">UNREGISTERED</text><text fill="#eeeeee" stroke="none" font-family="Arial" font-size="24px" font-style="normal" font-weight="normal" text-decoration="none" x="400" y="150">UNREGISTERED</text><text fill="#eeeeee" stroke="none" font-family="Arial" font-size="24px" font-style="normal" font-weight="normal" text-decoration="none" x="400" y="180">UNREGISTERED</text><text fill="#eeeeee" stroke="none" font-family="Arial" font-size="24px" font-style="normal" font-weight="normal" text-decoration="none" x="400" y="210">UNREGISTERED</text><text fill="#eeeeee" stroke="none" font-family="Arial" font-size="24px" font-style="normal" font-weight="normal" text-decoration="none" x="400" y="240">UNREGISTERED</text><text fill="#eeeeee" stroke="none" font-family="Arial" font-size="24px" font-style="normal" font-weight="normal" text-decoration="none" x="400" y="270">UNREGISTERED</text><text fill="#eeeeee" stroke="none" font-family="Arial" font-size="24px" font-style="normal" font-weight="normal" text-decoration="none" x="400" y="300">UNREGISTERED</text><g transform="translate(2,10) scale(1,1)"><path fill="none" stroke="#000000" d="M 8 0 L 568 0 L 568 304 L 8 304 L 8 0" stroke-miterlimit="10"/></g><g transform="translate(2,10) scale(1,1)"><path fill="#ffffff" stroke="none" d="M 8 0 L 8 22 L 164.1689453125 22 L 175.1689453125 11 L 175.1689453125 0 L 8 0"/></g><g transform="translate(2,10) scale(1,1)"><path fill="none" stroke="#000000" d="M 8 0 L 8 22 L 164.1689453125 22 L 175.1689453125 11 L 175.1689453125 0 L 8 0 L 8 0" stroke-miterlimit="10"/></g><g transform="translate(2,10) scale(1,1)"><g><path fill="none" stroke="none"/><text fill="#000000" stroke="none" font-family="Arial" font-size="13px" font-style="normal" font-weight="normal" text-decoration="none" x="32.72998046875" y="16">UC05 - Deleter cartão</text></g></g><g transform="translate(2,10) scale(1,1)"><g><path fill="none" stroke="none"/><text fill="#000000" stroke="none" font-family="Arial" font-size="13px" font-style="normal" font-weight="bold" text-decoration="none" x="12.279541015625" y="16">sd</text></g></g><g transform="translate(2,10) scale(1,1)"><path fill="#ffffff" stroke="none" d="M 84.6099715909091 47.3 C 84.6099715909091 43.82060576 87.48837331309092 41 91.0390625 41 C 94.58975168690908 41 97.4681534090909 43.82060576 97.4681534090909 47.3 C 97.4681534090909 50.779394239999995 94.58975168690908 53.6 91.0390625 53.6 C 87.48837331309092 53.6 84.6099715909091 50.779394239999995 84.6099715909091 47.3 Z"/></g><g transform="translate(2,10) scale(1,1)"><path fill="none" stroke="#000000" d="M 84.6099715909091 47.3 C 84.6099715909091 43.82060576 87.48837331309092 41 91.0390625 41 C 94.58975168690908 41 97.4681534090909 43.82060576 97.4681534090909 47.3 C 97.4681534090909 50.779394239999995 94.58975168690908 53.6 91.0390625 53.6 C 87.48837331309092 53.6 84.6099715909091 50.779394239999995 84.6099715909091 47.3 Z" stroke-miterlimit="10"/></g><g transform="translate(2,10) scale(1,1)"><path fill="none" stroke="#000000" d="M 91.0390625 53.6 L 91.0390625 66.4" stroke-miterlimit="10"/></g><g transform="translate(2,10) scale(1,1)"><path fill="none" stroke="#000000" d="M 84.23178977272727 58.4 L 97.84633522727273 58.4" stroke-miterlimit="10"/></g><g transform="translate(2,10) scale(1,1)"><path fill="none" stroke="#000000" d="M 91.0390625 66.4 L 81.58451704545455 79" stroke-miterlimit="10"/></g><g transform="translate(2,10) scale(1,1)"><path fill="none" stroke="#000000" d="M 91.0390625 66.4 L 100.49360795454545 79" stroke-miterlimit="10"/></g><g transform="translate(2,10) scale(1,1)"><g><path fill="none" stroke="none"/><text fill="#000000" stroke="none" font-family="Arial" font-size="13px" font-style="normal" font-weight="bold" text-decoration="none" x="39.04541015625" y="98">toninho: Usuário</text></g></g><g transform="translate(2,10) scale(1,1)"><path fill="none" stroke="#000000" d="M 92.5 105 L 92.5 248" stroke-miterlimit="10" stroke-dasharray="3"/></g><g transform="translate(2,10) scale(1,1)"><rect fill="#C0C0C0" stroke="none" x="319" y="47" width="71.736328125" height="39" opacity="0.2"/></g><g transform="translate(2,10) scale(1,1)"><rect fill="#ffffff" stroke="none" x="312" y="40" width="71.736328125" height="39"/></g><g transform="translate(2,10) scale(1,1)"><path fill="none" stroke="#000000" d="M 312 40 L 383.736328125 40 L 383.736328125 79 L 312 79 L 312 40 Z Z" stroke-miterlimit="10"/></g><g transform="translate(2,10) scale(1,1)"><g><path fill="none" stroke="none"/><text fill="#000000" stroke="none" font-family="Arial" font-size="13px" font-style="normal" font-weight="bold" text-decoration="none" x="327.279541015625" y="58">Cartão</text></g></g><g transform="translate(2,10) scale(1,1)"><path fill="none" stroke="#000000" d="M 348.5 80 L 348.5 256" stroke-miterlimit="10" stroke-dasharray="3"/></g><g transform="translate(2,10) scale(1,1)"><path fill="none" stroke="#000000" d="M 92 120 L 341 120" stroke-miterlimit="10"/></g><g transform="translate(2,10) scale(1,1)"><path fill="none" stroke="#000000" d="M 330.83732514237585 124.20951775601598 L 341 120 L 330.83732514237585 115.79048224398402" stroke-miterlimit="10"/></g><g transform="translate(2,10) scale(1,1)"><g><path fill="none" stroke="none"/><text fill="#000000" stroke="none" font-family="Arial" font-size="13px" font-style="normal" font-weight="normal" text-decoration="none" x="178.32177734375" y="115">1 : remover()</text></g></g><g transform="translate(2,10) scale(1,1)"><rect fill="#ffffff" stroke="none" x="341" y="120" width="13" height="75"/></g><g transform="translate(2,10) scale(1,1)"><path fill="none" stroke="#000000" d="M 341 120 L 354 120 L 354 195 L 341 195 L 341 120 Z Z" stroke-miterlimit="10"/></g><g transform="translate(2,10) scale(1,1)"><path fill="none" stroke="#000000" d="M 354 144 L 384 144 L 384 164 L 361 164" stroke-miterlimit="10"/></g><g transform="translate(2,10) scale(1,1)"><path fill="#000000" stroke="none" d="M 371.16267485762415 159.790482243984 L 361 164 L 371.16267485762415 168.209517756016"/></g><g transform="translate(2,10) scale(1,1)"><path fill="none" stroke="#000000" d="M 371.16267485762415 159.790482243984 L 361 164 L 371.16267485762415 168.209517756016 L 371.16267485762415 159.790482243984" stroke-miterlimit="10"/></g><g transform="translate(2,10) scale(1,1)"><g><path fill="none" stroke="none"/><text fill="#000000" stroke="none" font-family="Arial" font-size="13px" font-style="normal" font-weight="normal" text-decoration="none" x="388.5" y="163">2 : Abrir janela de confirmação</text></g></g><g transform="translate(2,10) scale(1,1)"><rect fill="#ffffff" stroke="none" x="348" y="164" width="13" height="28"/></g><g transform="translate(2,10) scale(1,1)"><path fill="none" stroke="#000000" d="M 348 164 L 361 164 L 361 192 L 348 192 L 348 164 Z Z" stroke-miterlimit="10"/></g><g transform="translate(2,10) scale(1,1)"><path fill="none" stroke="#000000" d="M 348 200 L 92 200" stroke-miterlimit="10" stroke-dasharray="3"/></g><g transform="translate(2,10) scale(1,1)"><path fill="none" stroke="#000000" d="M 102.16267485762415 195.790482243984 L 92 200 L 102.16267485762415 204.209517756016" stroke-miterlimit="10"/></g><g transform="translate(2,10) scale(1,1)"><g><path fill="none" stroke="none"/><text fill="#000000" stroke="none" font-family="Arial" font-size="13px" font-style="normal" font-weight="normal" text-decoration="none" x="119.5" y="223">3 : Cartão removido com sucesso</text></g></g></g></svg>