<svg version="1.1" xmlns="http://www.w3.org/2000/svg" xmlns:xlink="http://www.w3.org/1999/xlink" width="420" height="316"><defs/><g><text fill="#eeeeee" stroke="none" font-family="Arial" font-size="24px" font-style="normal" font-weight="normal" text-decoration="none" x="0" y="0">UNREGISTERED</text><text fill="#eeeeee" stroke="none" font-family="Arial" font-size="24px" font-style="normal" font-weight="normal" text-decoration="none" x="0" y="30">UNREGISTERED</text><text fill="#eeeeee" stroke="none" font-family="Arial" font-size="24px" font-style="normal" font-weight="normal" text-decoration="none" x="0" y="60">UNREGISTERED</text><text fill="#eeeeee" stroke="none" font-family="Arial" font-size="24px" font-style="normal" font-weight="normal" text-decoration="none" x="0" y="90">UNREGISTERED</text><text fill="#eeeeee" stroke="none" font-family="Arial" font-size="24px" font-style="normal" font-weight="normal" text-decoration="none" x="0" y="120">UNREGISTERED</text><text fill="#eeeeee" stroke="none" font-family="Arial" font-size="24px" font-style="normal" font-weight="normal" text-decoration="none" x="0" y="150">UNREGISTERED</text><text fill="#eeeeee" stroke="none" font-family="Arial" font-size="24px" font-style="normal" font-weight="normal" text-decoration="none" x="0" y="180">UNREGISTERED</text><text fill="#eeeeee" stroke="none" font-family="Arial" font-size="24px" font-style="normal" font-weight="normal" text-decoration="none" x="0" y="210">UNREGISTERED</text><text fill="#eeeeee" stroke="none" font-family="Arial" font-size="24px" font-style="normal" font-weight="normal" text-decoration="none" x="0" y="240">UNREGISTERED</text><text fill="#eeeeee" stroke="none" font-family="Arial" font-size="24px" font-style="normal" font-weight="normal" text-decoration="none" x="0" y="270">UNREGISTERED</text><text fill="#eeeeee" stroke="none" font-family="Arial" font-size="24px" font-style="normal" font-weight="normal" text-decoration="none" x="0" y="300">UNREGISTERED</text><text fill="#eeeeee" stroke="none" font-family="Arial" font-size="24px" font-style="normal" font-weight="normal" text-decoration="none" x="200" y="0">UNREGISTERED</text><text fill="#eeeeee" stroke="none" font-family="Arial" font-size="24px" font-style="normal" font-weight="normal" text-decoration="none" x="200" y="30">UNREGISTERED</text><text fill="#eeeeee" stroke="none" font-family="Arial" font-size="24px" font-style="normal" font-weight="normal" text-decoration="none" x="200" y="60">UNREGISTERED</text><text fill="#eeeeee" stroke="none" font-family="Arial" font-size="24px" font-style="normal" font-weight="normal" text-decoration="none" x="200" y="90">UNREGISTERED</text><text fill="#eeeeee" stroke="none" font-family="Arial" font-size="24px" font-style="normal" font-weight="normal" text-decoration="none" x="200" y="120">UNREGISTERED</text><text fill="#eeeeee" stroke="none" font-family="Arial" font-size="24px" font-style="normal" font-weight="normal" text-decoration="none" x="200" y="150">UNREGISTERED</text><text fill="#eeeeee" stroke="none" font-family="Arial" font-size="24px" font-style="normal" font-weight="normal" text-decoration="none" x="200" y="180">UNREGISTERED</text><text fill="#eeeeee" stroke="none" font-family="Arial" font-size="24px" font-style="normal" font-weight="normal" text-decoration="none" x="200" y="210">UNREGISTERED</text><text fill="#eeeeee" stroke="none" font-family="Arial" font-size="24px" font-style="normal" font-weight="normal" text-decoration="none" x="200" y="240">UNREGISTERED</text><text fill="#eeeeee" stroke="none" font-family="Arial" font-size="24px" font-style="normal" font-weight="normal" text-decoration="none" x="200" y="270">UNREGISTERED</text><text fill="#eeeeee" stroke="none" font-family="Arial" font-size="24px" font-style="normal" font-weight="normal" text-decoration="none" x="200" y="300">UNREGISTERED</text><text fill="#eeeeee" stroke="none" font-family="Arial" font-size="24px" font-style="normal" font-weight="normal" text-decoration="none" x="400" y="0">UNREGISTERED</text><text fill="#eeeeee" stroke="none" font-family="Arial" font-size="24px" font-style="normal" font-weight="normal" text-decoration="none" x="400" y="30">UNREGISTERED</text><text fill="#eeeeee" stroke="none" font-family="Arial" font-size="24px" font-style="normal" font-weight="normal" text-decoration="none" x="400" y="60">UNREGISTERED</text><text fill="#eeeeee" stroke="none" font-family="Arial" font-size="24px" font-style="normal" font-weight="normal" text-decoration="none" x="400" y="90">UNREGISTERED</text><text fill="#eeeeee" stroke="none" font-family="Arial" font-size="24px" font-style="normal" font-weight="normal" text-decoration="none" x="400" y="120">UNREGISTERED</text><text fill="#eeeeee" stroke="none" font-family="Arial" font-size="24px" font-style="normal" font-weight="normal" text-decoration="none" x="400" y="150">UNREGISTERED</text><text fill="#eeeeee" stroke="none" font-family="Arial" font-size="24px" font-style="normal" font-weight="normal" text-decoration="none" x="400" y="180">UNREGISTERED</text><text fill="#eeeeee" stroke="none" font-family="Arial" font-size="24px" font-style="normal" font-weight="normal" text-decoration="none" x="400" y="210">UNREGISTERED</text><text fill="#eeeeee" stroke="none" font-family="Arial" font-size="24px" font-style="normal" font-weight="normal" text-decoration="none" x="400" y="240">UNREGISTERED</text><text fill="#eeeeee" stroke="none" font-family="Arial" font-size="24px" font-style="normal" font-weight="normal" text-decoration="none" x="400" y="270">UNREGISTERED</text><text fill="#eeeeee" stroke="none" font-family="Arial" font-size="24px" font-style="normal" font-weight="normal" text-decoration="none" x="400" y="300">UNREGISTERED</text><g transform="translate(-14,10) scale(1,1)"><path fill="none" stroke="#000000" d="M 24 0 L 424 0 L 424 296 L 24 296 L 24 0" stroke-miterlimit="10"/></g><g transform="translate(-14,10) scale(1,1)"><path fill="#ffffff" stroke="none" d="M 24 0 L 24 22 L 214.13525390625 22 L 225.13525390625 11 L 225.13525390625 0 L 24 0"/></g><g transform="translate(-14,10) scale(1,1)"><path fill="none" stroke="#000000" d="M 24 0 L 24 22 L 214.13525390625 22 L 225.13525390625 11 L 225.13525390625 0 L 24 0 L 24 0" stroke-miterlimit="10"/></g><g transform="translate(-14,10) scale(1,1)"><g><path fill="none" stroke="none"/><text fill="#000000" stroke="none" font-family="Arial" font-size="13px" font-style="normal" font-weight="normal" text-decoration="none" x="48.72998046875" y="16">UC02 - Cancelar assinatura</text></g></g><g transform="translate(-14,10) scale(1,1)"><g><path fill="none" stroke="none"/><text fill="#000000" stroke="none" font-family="Arial" font-size="13px" font-style="normal" font-weight="bold" text-decoration="none" x="28.279541015625" y="16">sd</text></g></g><g transform="translate(-14,10) scale(1,1)"><path fill="#ffffff" stroke="none" d="M 79.8536239346591 47.3 C 79.8536239346591 43.82060576 82.73202565684092 41 86.28271484375 41 C 89.83340403065908 41 92.7118057528409 43.82060576 92.7118057528409 47.3 C 92.7118057528409 50.779394239999995 89.83340403065908 53.6 86.28271484375 53.6 C 82.73202565684092 53.6 79.8536239346591 50.779394239999995 79.8536239346591 47.3 Z"/></g><g transform="translate(-14,10) scale(1,1)"><path fill="none" stroke="#000000" d="M 79.8536239346591 47.3 C 79.8536239346591 43.82060576 82.73202565684092 41 86.28271484375 41 C 89.83340403065908 41 92.7118057528409 43.82060576 92.7118057528409 47.3 C 92.7118057528409 50.779394239999995 89.83340403065908 53.6 86.28271484375 53.6 C 82.73202565684092 53.6 79.8536239346591 50.779394239999995 79.8536239346591 47.3 Z" stroke-miterlimit="10"/></g><g transform="translate(-14,10) scale(1,1)"><path fill="none" stroke="#000000" d="M 86.28271484375 53.6 L 86.28271484375 66.4" stroke-miterlimit="10"/></g><g transform="translate(-14,10) scale(1,1)"><path fill="none" stroke="#000000" d="M 79.47544211647727 58.4 L 93.08998757102273 58.4" stroke-miterlimit="10"/></g><g transform="translate(-14,10) scale(1,1)"><path fill="none" stroke="#000000" d="M 86.28271484375 66.4 L 76.82816938920455 79" stroke-miterlimit="10"/></g><g transform="translate(-14,10) scale(1,1)"><path fill="none" stroke="#000000" d="M 86.28271484375 66.4 L 95.73726029829545 79" stroke-miterlimit="10"/></g><g transform="translate(-14,10) scale(1,1)"><g><path fill="none" stroke="none"/><text fill="#000000" stroke="none" font-family="Arial" font-size="13px" font-style="normal" font-weight="bold" text-decoration="none" x="28.5" y="98">Fernando: Usuário</text></g></g><g transform="translate(-14,10) scale(1,1)"><path fill="none" stroke="#000000" d="M 87.5 105 L 87.5 248" stroke-miterlimit="10" stroke-dasharray="3"/></g><g transform="translate(-14,10) scale(1,1)"><rect fill="#C0C0C0" stroke="none" x="295" y="47" width="86.18994140625" height="39" opacity="0.2"/></g><g transform="translate(-14,10) scale(1,1)"><rect fill="#ffffff" stroke="none" x="288" y="40" width="86.18994140625" height="39"/></g><g transform="translate(-14,10) scale(1,1)"><path fill="none" stroke="#000000" d="M 288 40 L 374.18994140625 40 L 374.18994140625 79 L 288 79 L 288 40 Z Z" stroke-miterlimit="10"/></g><g transform="translate(-14,10) scale(1,1)"><g><path fill="none" stroke="none"/><text fill="#000000" stroke="none" font-family="Arial" font-size="13px" font-style="normal" font-weight="bold" text-decoration="none" x="297.5" y="58">Assinatura</text></g></g><g transform="translate(-14,10) scale(1,1)"><path fill="none" stroke="#000000" d="M 332.5 80 L 332.5 256" stroke-miterlimit="10" stroke-dasharray="3"/></g><g transform="translate(-14,10) scale(1,1)"><path fill="none" stroke="#000000" d="M 87 136 L 325 136" stroke-miterlimit="10"/></g><g transform="translate(-14,10) scale(1,1)"><path fill="none" stroke="#000000" d="M 314.83732514237585 140.209517756016 L 325 136 L 314.83732514237585 131.790482243984" stroke-miterlimit="10"/></g><g transform="translate(-14,10) scale(1,1)"><g><path fill="none" stroke="none"/><text fill="#000000" stroke="none" font-family="Arial" font-size="13px" font-style="normal" font-weight="normal" text-decoration="none" x="169.75634765625" y="131">1 : cancela()</text></g></g><g transform="translate(-14,10) scale(1,1)"><rect fill="#ffffff" stroke="none" x="325" y="136" width="13" height="28"/></g><g transform="translate(-14,10) scale(1,1)"><path fill="none" stroke="#000000" d="M 325 136 L 338 136 L 338 164 L 325 164 L 325 136 Z Z" stroke-miterlimit="10"/></g><g transform="translate(-14,10) scale(1,1)"><path fill="none" stroke="#000000" d="M 325 152 L 87 152" stroke-miterlimit="10" stroke-dasharray="3"/></g><g transform="translate(-14,10) scale(1,1)"><path fill="none" stroke="#000000" d="M 97.16267485762415 147.790482243984 L 87 152 L 97.16267485762415 156.209517756016" stroke-miterlimit="10"/></g><g transform="translate(-14,10) scale(1,1)"><g><path fill="none" stroke="none"/><text fill="#000000" stroke="none" font-family="Arial" font-size="13px" font-style="normal" font-weight="normal" text-decoration="none" x="119.5" y="167">2 : Remove acesso aos jogos</text></g></g></g></svg>