<svg version="1.1" xmlns="http://www.w3.org/2000/svg" xmlns:xlink="http://www.w3.org/1999/xlink" width="500.74169921875" height="608"><defs/><g><text fill="#eeeeee" stroke="none" font-family="Arial" font-size="24px" font-style="normal" font-weight="normal" text-decoration="none" x="0" y="0">UNREGISTERED</text><text fill="#eeeeee" stroke="none" font-family="Arial" font-size="24px" font-style="normal" font-weight="normal" text-decoration="none" x="0" y="30">UNREGISTERED</text><text fill="#eeeeee" stroke="none" font-family="Arial" font-size="24px" font-style="normal" font-weight="normal" text-decoration="none" x="0" y="60">UNREGISTERED</text><text fill="#eeeeee" stroke="none" font-family="Arial" font-size="24px" font-style="normal" font-weight="normal" text-decoration="none" x="0" y="90">UNREGISTERED</text><text fill="#eeeeee" stroke="none" font-family="Arial" font-size="24px" font-style="normal" font-weight="normal" text-decoration="none" x="0" y="120">UNREGISTERED</text><text fill="#eeeeee" stroke="none" font-family="Arial" font-size="24px" font-style="normal" font-weight="normal" text-decoration="none" x="0" y="150">UNREGISTERED</text><text fill="#eeeeee" stroke="none" font-family="Arial" font-size="24px" font-style="normal" font-weight="normal" text-decoration="none" x="0" y="180">UNREGISTERED</text><text fill="#eeeeee" stroke="none" font-family="Arial" font-size="24px" font-style="normal" font-weight="normal" text-decoration="none" x="0" y="210">UNREGISTERED</text><text fill="#eeeeee" stroke="none" font-family="Arial" font-size="24px" font-style="normal" font-weight="normal" text-decoration="none" x="0" y="240">UNREGISTERED</text><text fill="#eeeeee" stroke="none" font-family="Arial" font-size="24px" font-style="normal" font-weight="normal" text-decoration="none" x="0" y="270">UNREGISTERED</text><text fill="#eeeeee" stroke="none" font-family="Arial" font-size="24px" font-style="normal" font-weight="normal" text-decoration="none" x="0" y="300">UNREGISTERED</text><text fill="#eeeeee" stroke="none" font-family="Arial" font-size="24px" font-style="normal" font-weight="normal" text-decoration="none" x="0" y="330">UNREGISTERED</text><text fill="#eeeeee" stroke="none" font-family="Arial" font-size="24px" font-style="normal" font-weight="normal" text-decoration="none" x="0" y="360">UNREGISTERED</text><text fill="#eeeeee" stroke="none" font-family="Arial" font-size="24px" font-style="normal" font-weight="normal" text-decoration="none" x="0" y="390">UNREGISTERED</text><text fill="#eeeeee" stroke="none" font-family="Arial" font-size="24px" font-style="normal" font-weight="normal" text-decoration="none" x="0" y="420">UNREGISTERED</text><text fill="#eeeeee" stroke="none" font-family="Arial" font-size="24px" font-style="normal" font-weight="normal" text-decoration="none" x="0" y="450">UNREGISTERED</text><text fill="#eeeeee" stroke="none" font-family="Arial" font-size="24px" font-style="normal" font-weight="normal" text-decoration="none" x="0" y="480">UNREGISTERED</text><text fill="#eeeeee" stroke="none" font-family="Arial" font-size="24px" font-style="normal" font-weight="normal" text-decoration="none" x="0" y="510">UNREGISTERED</text><text fill="#eeeeee" stroke="none" font-family="Arial" font-size="24px" font-style="normal" font-weight="normal" text-decoration="none" x="0" y="540">UNREGISTERED</text><text fill="#eeeeee" stroke="none" font-family="Arial" font-size="24px" font-style="normal" font-weight="normal" text-decoration="none" x="0" y="570">UNREGISTERED</text><text fill="#eeeeee" stroke="none" font-family="Arial" font-size="24px" font-style="normal" font-weight="normal" text-decoration="none" x="0" y="600">UNREGISTERED</text><text fill="#eeeeee" stroke="none" font-family="Arial" font-size="24px" font-style="normal" font-weight="normal" text-decoration="none" x="200" y="0">UNREGISTERED</text><text fill="#eeeeee" stroke="none" font-family="Arial" font-size="24px" font-style="normal" font-weight="normal" text-decoration="none" x="200" y="30">UNREGISTERED</text><text fill="#eeeeee" stroke="none" font-family="Arial" font-size="24px" font-style="normal" font-weight="normal" text-decoration="none" x="200" y="60">UNREGISTERED</text><text fill="#eeeeee" stroke="none" font-family="Arial" font-size="24px" font-style="normal" font-weight="normal" text-decoration="none" x="200" y="90">UNREGISTERED</text><text fill="#eeeeee" stroke="none" font-family="Arial" font-size="24px" font-style="normal" font-weight="normal" text-decoration="none" x="200" y="120">UNREGISTERED</text><text fill="#eeeeee" stroke="none" font-family="Arial" font-size="24px" font-style="normal" font-weight="normal" text-decoration="none" x="200" y="150">UNREGISTERED</text><text fill="#eeeeee" stroke="none" font-family="Arial" font-size="24px" font-style="normal" font-weight="normal" text-decoration="none" x="200" y="180">UNREGISTERED</text><text fill="#eeeeee" stroke="none" font-family="Arial" font-size="24px" font-style="normal" font-weight="normal" text-decoration="none" x="200" y="210">UNREGISTERED</text><text fill="#eeeeee" stroke="none" font-family="Arial" font-size="24px" font-style="normal" font-weight="normal" text-decoration="none" x="200" y="240">UNREGISTERED</text><text fill="#eeeeee" stroke="none" font-family="Arial" font-size="24px" font-style="normal" font-weight="normal" text-decoration="none" x="200" y="270">UNREGISTERED</text><text fill="#eeeeee" stroke="none" font-family="Arial" font-size="24px" font-style="normal" font-weight="normal" text-decoration="none" x="200" y="300">UNREGISTERED</text><text fill="#eeeeee" stroke="none" font-family="Arial" font-size="24px" font-style="normal" font-weight="normal" text-decoration="none" x="200" y="330">UNREGISTERED</text><text fill="#eeeeee" stroke="none" font-family="Arial" font-size="24px" font-style="normal" font-weight="normal" text-decoration="none" x="200" y="360">UNREGISTERED</text><text fill="#eeeeee" stroke="none" font-family="Arial" font-size="24px" font-style="normal" font-weight="normal" text-decoration="none" x="200" y="390">UNREGISTERED</text><text fill="#eeeeee" stroke="none" font-family="Arial" font-size="24px" font-style="normal" font-weight="normal" text-decoration="none" x="200" y="420">UNREGISTERED</text><text fill="#eeeeee" stroke="none" font-family="Arial" font-size="24px" font-style="normal" font-weight="normal" text-decoration="none" x="200" y="450">UNREGISTERED</text><text fill="#eeeeee" stroke="none" font-family="Arial" font-size="24px" font-style="normal" font-weight="normal" text-decoration="none" x="200" y="480">UNREGISTERED</text><text fill="#eeeeee" stroke="none" font-family="Arial" font-size="24px" font-style="normal" font-weight="normal" text-decoration="none" x="200" y="510">UNREGISTERED</text><text fill="#eeeeee" stroke="none" font-family="Arial" font-size="24px" font-style="normal" font-weight="normal" text-decoration="none" x="200" y="540">UNREGISTERED</text><text fill="#eeeeee" stroke="none" font-family="Arial" font-size="24px" font-style="normal" font-weight="normal" text-decoration="none" x="200" y="570">UNREGISTERED</text><text fill="#eeeeee" stroke="none" font-family="Arial" font-size="24px" font-style="normal" font-weight="normal" text-decoration="none" x="200" y="600">UNREGISTERED</text><text fill="#eeeeee" stroke="none" font-family="Arial" font-size="24px" font-style="normal" font-weight="normal" text-decoration="none" x="400" y="0">UNREGISTERED</text><text fill="#eeeeee" stroke="none" font-family="Arial" font-size="24px" font-style="normal" font-weight="normal" text-decoration="none" x="400" y="30">UNREGISTERED</text><text fill="#eeeeee" stroke="none" font-family="Arial" font-size="24px" font-style="normal" font-weight="normal" text-decoration="none" x="400" y="60">UNREGISTERED</text><text fill="#eeeeee" stroke="none" font-family="Arial" font-size="24px" font-style="normal" font-weight="normal" text-decoration="none" x="400" y="90">UNREGISTERED</text><text fill="#eeeeee" stroke="none" font-family="Arial" font-size="24px" font-style="normal" font-weight="normal" text-decoration="none" x="400" y="120">UNREGISTERED</text><text fill="#eeeeee" stroke="none" font-family="Arial" font-size="24px" font-style="normal" font-weight="normal" text-decoration="none" x="400" y="150">UNREGISTERED</text><text fill="#eeeeee" stroke="none" font-family="Arial" font-size="24px" font-style="normal" font-weight="normal" text-decoration="none" x="400" y="180">UNREGISTERED</text><text fill="#eeeeee" stroke="none" font-family="Arial" font-size="24px" font-style="normal" font-weight="normal" text-decoration="none" x="400" y="210">UNREGISTERED</text><text fill="#eeeeee" stroke="none" font-family="Arial" font-size="24px" font-style="normal" font-weight="normal" text-decoration="none" x="400" y="240">UNREGISTERED</text><text fill="#eeeeee" stroke="none" font-family="Arial" font-size="24px" font-style="normal" font-weight="normal" text-decoration="none" x="400" y="270">UNREGISTERED</text><text fill="#eeeeee" stroke="none" font-family="Arial" font-size="24px" font-style="normal" font-weight="normal" text-decoration="none" x="400" y="300">UNREGISTERED</text><text fill="#eeeeee" stroke="none" font-family="Arial" font-size="24px" font-style="normal" font-weight="normal" text-decoration="none" x="400" y="330">UNREGISTERED</text><text fill="#eeeeee" stroke="none" font-family="Arial" font-size="24px" font-style="normal" font-weight="normal" text-decoration="none" x="400" y="360">UNREGISTERED</text><text fill="#eeeeee" stroke="none" font-family="Arial" font-size="24px" font-style="normal" font-weight="normal" text-decoration="none" x="400" y="390">UNREGISTERED</text><text fill="#eeeeee" stroke="none" font-family="Arial" font-size="24px" font-style="normal" font-weight="normal" text-decoration="none" x="400" y="420">UNREGISTERED</text><text fill="#eeeeee" stroke="none" font-family="Arial" font-size="24px" font-style="normal" font-weight="normal" text-decoration="none" x="400" y="450">UNREGISTERED</text><text fill="#eeeeee" stroke="none" font-family="Arial" font-size="24px" font-style="normal" font-weight="normal" text-decoration="none" x="400" y="480">UNREGISTERED</text><text fill="#eeeeee" stroke="none" font-family="Arial" font-size="24px" font-style="normal" font-weight="normal" text-decoration="none" x="400" y="510">UNREGISTERED</text><text fill="#eeeeee" stroke="none" font-family="Arial" font-size="24px" font-style="normal" font-weight="normal" text-decoration="none" x="400" y="540">UNREGISTERED</text><text fill="#eeeeee" stroke="none" font-family="Arial" font-size="24px" font-style="normal" font-weight="normal" text-decoration="none" x="400" y="570">UNREGISTERED</text><text fill="#eeeeee" stroke="none" font-family="Arial" font-size="24px" font-style="normal" font-weight="normal" text-decoration="none" x="400" y="600">UNREGISTERED</text><g transform="translate(-265,-14) scale(1,1)"><rect fill="#C0C0C0" stroke="none" x="351" y="167" width="114.13623046875" height="132" opacity="0.2"/></g><g transform="translate(-265,-14) scale(1,1)"><rect fill="#ffffff" stroke="none" x="344" y="160" width="114.13623046875" height="132"/></g><g transform="translate(-265,-14) scale(1,1)"><path fill="none" stroke="#000000" d="M 344 160 L 458.13623046875 160 L 458.13623046875 292 L 344 292 L 344 160 Z Z" stroke-miterlimit="10"/></g><g transform="translate(-265,-14) scale(1,1)"><path fill="none" stroke="#000000" d="M 344 185 L 458.13623046875 185" stroke-miterlimit="10"/></g><g transform="translate(-265,-14) scale(1,1)"><path fill="none" stroke="#000000" d="M 344 210 L 458.13623046875 210" stroke-miterlimit="10"/></g><g transform="translate(-265,-14) scale(1,1)"><g><path fill="none" stroke="none"/><text fill="#000000" stroke="none" font-family="Arial" font-size="13px" font-style="normal" font-weight="bold" text-decoration="none" x="376.86767578125" y="178">Usuário</text></g></g><g transform="translate(-265,-14) scale(1,1)"><g><path fill="none" stroke="none"/><text fill="#000000" stroke="none" font-family="Arial" font-size="13px" font-style="normal" font-weight="normal" text-decoration="none" x="349" y="203">+isAssinante</text></g></g><g transform="translate(-265,-14) scale(1,1)"><g><path fill="none" stroke="none"/><text fill="#000000" stroke="none" font-family="Arial" font-size="13px" font-style="normal" font-weight="normal" text-decoration="none" x="349" y="226">+atualizarDados()</text></g></g><g transform="translate(-265,-14) scale(1,1)"><rect fill="#C0C0C0" stroke="none" x="655" y="167" width="106.1953125" height="132" opacity="0.2"/></g><g transform="translate(-265,-14) scale(1,1)"><rect fill="#ffffff" stroke="none" x="648" y="160" width="106.1953125" height="132"/></g><g transform="translate(-265,-14) scale(1,1)"><path fill="none" stroke="#000000" d="M 648 160 L 754.1953125 160 L 754.1953125 292 L 648 292 L 648 160 Z Z" stroke-miterlimit="10"/></g><g transform="translate(-265,-14) scale(1,1)"><path fill="none" stroke="#000000" d="M 648 185 L 754.1953125 185" stroke-miterlimit="10"/></g><g transform="translate(-265,-14) scale(1,1)"><path fill="none" stroke="#000000" d="M 648 195 L 754.1953125 195" stroke-miterlimit="10"/></g><g transform="translate(-265,-14) scale(1,1)"><g><path fill="none" stroke="none"/><text fill="#000000" stroke="none" font-family="Arial" font-size="13px" font-style="normal" font-weight="bold" text-decoration="none" x="656.6767578125" y="178">Administrador</text></g></g><g transform="translate(-265,-14) scale(1,1)"><g><path fill="none" stroke="none"/><text fill="#000000" stroke="none" font-family="Arial" font-size="13px" font-style="normal" font-weight="normal" text-decoration="none" x="653" y="213">+banirUsuario()</text></g></g><g transform="translate(-265,-14) scale(1,1)"><rect fill="#C0C0C0" stroke="none" x="535" y="263" width="114.13623046875" height="205" opacity="0.2"/></g><g transform="translate(-265,-14) scale(1,1)"><rect fill="#ffffff" stroke="none" x="528" y="256" width="114.13623046875" height="205"/></g><g transform="translate(-265,-14) scale(1,1)"><path fill="none" stroke="#000000" d="M 528 256 L 642.13623046875 256 L 642.13623046875 461 L 528 461 L 528 256 Z Z" stroke-miterlimit="10"/></g><g transform="translate(-265,-14) scale(1,1)"><path fill="none" stroke="#000000" d="M 528 281 L 642.13623046875 281" stroke-miterlimit="10"/></g><g transform="translate(-265,-14) scale(1,1)"><path fill="none" stroke="#000000" d="M 528 364 L 642.13623046875 364" stroke-miterlimit="10"/></g><g transform="translate(-265,-14) scale(1,1)"><g><path fill="none" stroke="none"/><text fill="#000000" stroke="none" font-family="Arial" font-size="13px" font-style="normal" font-weight="bold" text-decoration="none" x="564.4794921875" y="274">Cartão</text></g></g><g transform="translate(-265,-14) scale(1,1)"><g><path fill="none" stroke="none"/><text fill="#000000" stroke="none" font-family="Arial" font-size="13px" font-style="normal" font-weight="normal" text-decoration="none" x="533" y="297">#numero</text></g></g><g transform="translate(-265,-14) scale(1,1)"><g><path fill="none" stroke="none"/><text fill="#000000" stroke="none" font-family="Arial" font-size="13px" font-style="normal" font-weight="normal" text-decoration="none" x="533" y="312">#cvv</text></g></g><g transform="translate(-265,-14) scale(1,1)"><g><path fill="none" stroke="none"/><text fill="#000000" stroke="none" font-family="Arial" font-size="13px" font-style="normal" font-weight="normal" text-decoration="none" x="533" y="327">#validade</text></g></g><g transform="translate(-265,-14) scale(1,1)"><g><path fill="none" stroke="none"/><text fill="#000000" stroke="none" font-family="Arial" font-size="13px" font-style="normal" font-weight="normal" text-decoration="none" x="533" y="342">+proprietario</text></g></g><g transform="translate(-265,-14) scale(1,1)"><g><path fill="none" stroke="none"/><text fill="#000000" stroke="none" font-family="Arial" font-size="13px" font-style="normal" font-weight="normal" text-decoration="none" x="533" y="357">+bandeira</text></g></g><g transform="translate(-265,-14) scale(1,1)"><g><path fill="none" stroke="none"/><text fill="#000000" stroke="none" font-family="Arial" font-size="13px" font-style="normal" font-weight="normal" text-decoration="none" x="533" y="380">+verificaSaldo()</text></g></g><g transform="translate(-265,-14) scale(1,1)"><g><path fill="none" stroke="none"/><text fill="#000000" stroke="none" font-family="Arial" font-size="13px" font-style="normal" font-weight="normal" text-decoration="none" x="533" y="395">+pagar()</text></g></g><g transform="translate(-265,-14) scale(1,1)"><g><path fill="none" stroke="none"/><text fill="#000000" stroke="none" font-family="Arial" font-size="13px" font-style="normal" font-weight="normal" text-decoration="none" x="533" y="410">+gerenciar()</text></g></g><g transform="translate(-265,-14) scale(1,1)"><g><path fill="none" stroke="none"/><text fill="#000000" stroke="none" font-family="Arial" font-size="13px" font-style="normal" font-weight="normal" text-decoration="none" x="533" y="425">+adiciona()</text></g></g><g transform="translate(-265,-14) scale(1,1)"><g><path fill="none" stroke="none"/><text fill="#000000" stroke="none" font-family="Arial" font-size="13px" font-style="normal" font-weight="normal" text-decoration="none" x="533" y="440">+remove()</text></g></g><g transform="translate(-265,-14) scale(1,1)"><g><path fill="none" stroke="none"/><text fill="#000000" stroke="none" font-family="Arial" font-size="13px" font-style="normal" font-weight="normal" text-decoration="none" x="533" y="455">+editar()</text></g></g><g transform="translate(-265,-14) scale(1,1)"><rect fill="#C0C0C0" stroke="none" x="343" y="439" width="111.984375" height="115" opacity="0.2"/></g><g transform="translate(-265,-14) scale(1,1)"><rect fill="#ffffff" stroke="none" x="336" y="432" width="111.984375" height="115"/></g><g transform="translate(-265,-14) scale(1,1)"><path fill="none" stroke="#000000" d="M 336 432 L 447.984375 432 L 447.984375 547 L 336 547 L 336 432 Z Z" stroke-miterlimit="10"/></g><g transform="translate(-265,-14) scale(1,1)"><path fill="none" stroke="#000000" d="M 336 457 L 447.984375 457" stroke-miterlimit="10"/></g><g transform="translate(-265,-14) scale(1,1)"><path fill="none" stroke="#000000" d="M 336 510 L 447.984375 510" stroke-miterlimit="10"/></g><g transform="translate(-265,-14) scale(1,1)"><g><path fill="none" stroke="none"/><text fill="#000000" stroke="none" font-family="Arial" font-size="13px" font-style="normal" font-weight="bold" text-decoration="none" x="358.397216796875" y="450">Assinatura</text></g></g><g transform="translate(-265,-14) scale(1,1)"><g><path fill="none" stroke="none"/><text fill="#000000" stroke="none" font-family="Arial" font-size="13px" font-style="normal" font-weight="normal" text-decoration="none" x="341" y="473">+data vencimento</text></g></g><g transform="translate(-265,-14) scale(1,1)"><g><path fill="none" stroke="none"/><text fill="#000000" stroke="none" font-family="Arial" font-size="13px" font-style="normal" font-weight="normal" text-decoration="none" x="341" y="488">+isAtivada</text></g></g><g transform="translate(-265,-14) scale(1,1)"><g><path fill="none" stroke="none"/><text fill="#000000" stroke="none" font-family="Arial" font-size="13px" font-style="normal" font-weight="normal" text-decoration="none" x="341" y="503">+data ativação</text></g></g><g transform="translate(-265,-14) scale(1,1)"><g><path fill="none" stroke="none"/><text fill="#000000" stroke="none" font-family="Arial" font-size="13px" font-style="normal" font-weight="normal" text-decoration="none" x="341" y="526">+ativa()</text></g></g><g transform="translate(-265,-14) scale(1,1)"><g><path fill="none" stroke="none"/><text fill="#000000" stroke="none" font-family="Arial" font-size="13px" font-style="normal" font-weight="normal" text-decoration="none" x="341" y="541">+cancela()</text></g></g><g transform="translate(-265,-14) scale(1,1)"><rect fill="#C0C0C0" stroke="none" x="663" y="431" width="93.91259765625" height="160" opacity="0.2"/></g><g transform="translate(-265,-14) scale(1,1)"><rect fill="#ffffff" stroke="none" x="656" y="424" width="93.91259765625" height="160"/></g><g transform="translate(-265,-14) scale(1,1)"><path fill="none" stroke="#000000" d="M 656 424 L 749.91259765625 424 L 749.91259765625 584 L 656 584 L 656 424 Z Z" stroke-miterlimit="10"/></g><g transform="translate(-265,-14) scale(1,1)"><path fill="none" stroke="#000000" d="M 656 449 L 749.91259765625 449" stroke-miterlimit="10"/></g><g transform="translate(-265,-14) scale(1,1)"><path fill="none" stroke="#000000" d="M 656 517 L 749.91259765625 517" stroke-miterlimit="10"/></g><g transform="translate(-265,-14) scale(1,1)"><g><path fill="none" stroke="none"/><text fill="#000000" stroke="none" font-family="Arial" font-size="13px" font-style="normal" font-weight="bold" text-decoration="none" x="687.429931640625" y="442">Jogo</text></g></g><g transform="translate(-265,-14) scale(1,1)"><g><path fill="none" stroke="none"/><text fill="#000000" stroke="none" font-family="Arial" font-size="13px" font-style="normal" font-weight="normal" text-decoration="none" x="661" y="464">+nome</text></g></g><g transform="translate(-265,-14) scale(1,1)"><g><path fill="none" stroke="none"/><text fill="#000000" stroke="none" font-family="Arial" font-size="13px" font-style="normal" font-weight="normal" text-decoration="none" x="661" y="479">+empresa</text></g></g><g transform="translate(-265,-14) scale(1,1)"><g><path fill="none" stroke="none"/><text fill="#000000" stroke="none" font-family="Arial" font-size="13px" font-style="normal" font-weight="normal" text-decoration="none" x="661" y="495">+linkDownload</text></g></g><g transform="translate(-265,-14) scale(1,1)"><g><path fill="none" stroke="none"/><text fill="#000000" stroke="none" font-family="Arial" font-size="13px" font-style="normal" font-weight="normal" text-decoration="none" x="661" y="510">+descricao</text></g></g><g transform="translate(-265,-14) scale(1,1)"><g><path fill="none" stroke="none"/><text fill="#000000" stroke="none" font-family="Arial" font-size="13px" font-style="normal" font-weight="normal" text-decoration="none" x="661" y="533">+gerencia()</text></g></g><g transform="translate(-265,-14) scale(1,1)"><g><path fill="none" stroke="none"/><text fill="#000000" stroke="none" font-family="Arial" font-size="13px" font-style="normal" font-weight="normal" text-decoration="none" x="661" y="548">+adiciona()</text></g></g><g transform="translate(-265,-14) scale(1,1)"><g><path fill="none" stroke="none"/><text fill="#000000" stroke="none" font-family="Arial" font-size="13px" font-style="normal" font-weight="normal" text-decoration="none" x="661" y="563">+remove()</text></g></g><g transform="translate(-265,-14) scale(1,1)"><g><path fill="none" stroke="none"/><text fill="#000000" stroke="none" font-family="Arial" font-size="13px" font-style="normal" font-weight="normal" text-decoration="none" x="661" y="578">+editar()</text></g></g><g transform="translate(-265,-14) scale(1,1)"><path fill="none" stroke="#000000" d="M 459 268 L 527 316" stroke-miterlimit="10"/></g><g transform="translate(-265,-14) scale(1,1)"><g><path fill="none" stroke="none"/><text fill="#000000" stroke="none" font-family="Arial" font-size="13px" font-style="normal" font-weight="normal" text-decoration="none" x="478.64453125" y="284">+possui</text></g></g><g transform="translate(-265,-14) scale(1,1)"><g><path fill="none" stroke="none"/><text fill="#000000" stroke="none" font-family="Arial" font-size="13px" font-style="normal" font-weight="normal" text-decoration="none" x="465.5" y="295">1</text></g></g><g transform="translate(-265,-14) scale(1,1)"><g><path fill="none" stroke="none"/><text fill="#000000" stroke="none" font-family="Arial" font-size="13px" font-style="normal" font-weight="normal" text-decoration="none" x="492.5" y="318">0..*</text></g></g><g transform="translate(-265,-14) scale(1,1)"><path fill="none" stroke="#000000" d="M 655 502 L 449 492" stroke-miterlimit="10"/></g><g transform="translate(-265,-14) scale(1,1)"><path fill="#000000" stroke="none" d="M 459.3548270368999 488.2881868263763 L 449 492 L 458.94661668137263 496.69732015023885 L 470.9741243353332 493.066705064822"/></g><g transform="translate(-265,-14) scale(1,1)"><path fill="none" stroke="#000000" d="M 459.3548270368999 488.2881868263763 L 449 492 L 458.94661668137263 496.69732015023885 L 470.9741243353332 493.066705064822 L 459.3548270368999 488.2881868263763" stroke-miterlimit="10"/></g><g transform="translate(-265,-14) scale(1,1)"><g><path fill="none" stroke="none"/><text fill="#000000" stroke="none" font-family="Arial" font-size="13px" font-style="normal" font-weight="normal" text-decoration="none" x="531.5" y="516">+libera</text></g></g><g transform="translate(-265,-14) scale(1,1)"><g><path fill="none" stroke="none"/><text fill="#000000" stroke="none" font-family="Arial" font-size="13px" font-style="normal" font-weight="normal" text-decoration="none" x="630.58544921875" y="493">*</text></g></g><g transform="translate(-265,-14) scale(1,1)"><g><path fill="none" stroke="none"/><text fill="#000000" stroke="none" font-family="Arial" font-size="13px" font-style="normal" font-weight="normal" text-decoration="none" x="467.5" y="485">1</text></g></g><g transform="translate(-265,-14) scale(1,1)"><path fill="none" stroke="#000000" d="M 527 397 L 449 450" stroke-miterlimit="10"/></g><g transform="translate(-265,-14) scale(1,1)"><g><path fill="none" stroke="none"/><text fill="#000000" stroke="none" font-family="Arial" font-size="13px" font-style="normal" font-weight="normal" text-decoration="none" x="498.5" y="403">1</text></g></g><g transform="translate(-265,-14) scale(1,1)"><g><path fill="none" stroke="none"/><text fill="#000000" stroke="none" font-family="Arial" font-size="13px" font-style="normal" font-weight="normal" text-decoration="none" x="479.5" y="437">+paga</text></g></g><g transform="translate(-265,-14) scale(1,1)"><g><path fill="none" stroke="none"/><text fill="#000000" stroke="none" font-family="Arial" font-size="13px" font-style="normal" font-weight="normal" text-decoration="none" x="455.5" y="432">1</text></g></g><g transform="translate(-265,-14) scale(1,1)"><path fill="none" stroke="#000000" d="M 398 293 L 393 431" stroke-miterlimit="10"/></g><g transform="translate(-265,-14) scale(1,1)"><g><path fill="none" stroke="none"/><text fill="#000000" stroke="none" font-family="Arial" font-size="13px" font-style="normal" font-weight="normal" text-decoration="none" x="380.5" y="367">+gerencia</text></g></g><g transform="translate(-265,-14) scale(1,1)"><g><path fill="none" stroke="none"/><text fill="#000000" stroke="none" font-family="Arial" font-size="13px" font-style="normal" font-weight="normal" text-decoration="none" x="380.5" y="319">1</text></g></g><g transform="translate(-265,-14) scale(1,1)"><g><path fill="none" stroke="none"/><text fill="#000000" stroke="none" font-family="Arial" font-size="13px" font-style="normal" font-weight="normal" text-decoration="none" x="377.5" y="413">1</text></g></g><g transform="translate(-265,-14) scale(1,1)"><path fill="none" stroke="#000000" d="M 343 225 L 296 224 L 296 592 L 704 592 L 704 585" stroke-miterlimit="10"/></g><g transform="translate(-265,-14) scale(1,1)"><g><path fill="none" stroke="none"/><text fill="#000000" stroke="none" font-family="Arial" font-size="13px" font-style="normal" font-weight="normal" text-decoration="none" x="274.5" y="582">+baixar</text></g></g><g transform="translate(-265,-14) scale(1,1)"><g><path fill="none" stroke="none"/><text fill="#000000" stroke="none" font-family="Arial" font-size="13px" font-style="normal" font-weight="normal" text-decoration="none" x="317.5" y="217">1</text></g></g><g transform="translate(-265,-14) scale(1,1)"><g><path fill="none" stroke="none"/><text fill="#000000" stroke="none" font-family="Arial" font-size="13px" font-style="normal" font-weight="normal" text-decoration="none" x="706.5" y="611">0..*</text></g></g><g transform="translate(-265,-14) scale(1,1)"><path fill="none" stroke="#000000" d="M 701 293 L 702 423" stroke-miterlimit="10"/></g><g transform="translate(-265,-14) scale(1,1)"><g><path fill="none" stroke="none"/><text fill="#000000" stroke="none" font-family="Arial" font-size="13px" font-style="normal" font-weight="normal" text-decoration="none" x="686.141357421875" y="362">+gerencia</text></g></g><g transform="translate(-265,-14) scale(1,1)"><g><path fill="none" stroke="none"/><text fill="#000000" stroke="none" font-family="Arial" font-size="13px" font-style="normal" font-weight="normal" text-decoration="none" x="684.5" y="319">1</text></g></g><g transform="translate(-265,-14) scale(1,1)"><g><path fill="none" stroke="none"/><text fill="#000000" stroke="none" font-family="Arial" font-size="13px" font-style="normal" font-weight="normal" text-decoration="none" x="686.58544921875" y="406">*</text></g></g><g transform="translate(-265,-14) scale(1,1)"><rect fill="#C0C0C0" stroke="none" x="503" y="31" width="89.57080078125" height="115" opacity="0.2"/></g><g transform="translate(-265,-14) scale(1,1)"><rect fill="#ffffff" stroke="none" x="496" y="24" width="89.57080078125" height="115"/></g><g transform="translate(-265,-14) scale(1,1)"><path fill="none" stroke="#000000" d="M 496 24 L 585.57080078125 24 L 585.57080078125 139 L 496 139 L 496 24 Z Z" stroke-miterlimit="10"/></g><g transform="translate(-265,-14) scale(1,1)"><path fill="none" stroke="#000000" d="M 496 49 L 585.57080078125 49" stroke-miterlimit="10"/></g><g transform="translate(-265,-14) scale(1,1)"><path fill="none" stroke="#000000" d="M 496 117 L 585.57080078125 117" stroke-miterlimit="10"/></g><g transform="translate(-265,-14) scale(1,1)"><g><path fill="none" stroke="none"/><text fill="#000000" stroke="none" font-family="Arial" font-size="13px" font-style="normal" font-weight="bold" text-decoration="none" x="518.01953125" y="42">Pessoa</text></g></g><g transform="translate(-265,-14) scale(1,1)"><g><path fill="none" stroke="none"/><text fill="#000000" stroke="none" font-family="Arial" font-size="13px" font-style="normal" font-weight="normal" text-decoration="none" x="501" y="65">+id</text></g></g><g transform="translate(-265,-14) scale(1,1)"><g><path fill="none" stroke="none"/><text fill="#000000" stroke="none" font-family="Arial" font-size="13px" font-style="normal" font-weight="normal" text-decoration="none" x="501" y="79">+nome</text></g></g><g transform="translate(-265,-14) scale(1,1)"><g><path fill="none" stroke="none"/><text fill="#000000" stroke="none" font-family="Arial" font-size="13px" font-style="normal" font-weight="normal" text-decoration="none" x="501" y="95">-senha</text></g></g><g transform="translate(-265,-14) scale(1,1)"><g><path fill="none" stroke="none"/><text fill="#000000" stroke="none" font-family="Arial" font-size="13px" font-style="normal" font-weight="normal" text-decoration="none" x="501" y="110">+nickname</text></g></g><g transform="translate(-265,-14) scale(1,1)"><g><path fill="none" stroke="none"/><text fill="#000000" stroke="none" font-family="Arial" font-size="13px" font-style="normal" font-weight="normal" text-decoration="none" x="501" y="133">+login()</text></g></g><g transform="translate(-265,-14) scale(1,1)"><path fill="none" stroke="#000000" d="M 459 165 L 495 128" stroke-miterlimit="10"/></g><g transform="translate(-265,-14) scale(1,1)"><path fill="#FFFFFF" stroke="none" d="M 486.8601576310498 148.43876136679137 L 495 128 L 474.79187550161396 136.69664902463757"/></g><g transform="translate(-265,-14) scale(1,1)"><path fill="none" stroke="#000000" d="M 486.8601576310498 148.43876136679137 L 495 128 L 474.79187550161396 136.69664902463757 L 486.8601576310498 148.43876136679137" stroke-miterlimit="10"/></g><g transform="translate(-265,-14) scale(1,1)"><path fill="none" stroke="#000000" d="M 647 177 L 587 123" stroke-miterlimit="10"/></g><g transform="translate(-265,-14) scale(1,1)"><path fill="#FFFFFF" stroke="none" d="M 607.7397512955969 130.33912230425312 L 587 123 L 596.4756756319442 142.8547619305339"/></g><g transform="translate(-265,-14) scale(1,1)"><path fill="none" stroke="#000000" d="M 607.7397512955969 130.33912230425312 L 587 123 L 596.4756756319442 142.8547619305339 L 607.7397512955969 130.33912230425312" stroke-miterlimit="10"/></g><g transform="translate(-265,-14) scale(1,1)"><path fill="none" stroke="#000000" d="M 647 226 L 459 226" stroke-miterlimit="10"/></g><g transform="translate(-265,-14) scale(1,1)"><g><path fill="none" stroke="none"/><text fill="#000000" stroke="none" font-family="Arial" font-size="13px" font-style="normal" font-weight="normal" text-decoration="none" x="622.220458984375" y="218">*</text></g></g><g transform="translate(-265,-14) scale(1,1)"><g><path fill="none" stroke="none"/><text fill="#000000" stroke="none" font-family="Arial" font-size="13px" font-style="normal" font-weight="normal" text-decoration="none" x="479.220458984375" y="219">*</text></g></g></g></svg>