<svg version="1.1" xmlns="http://www.w3.org/2000/svg" xmlns:xlink="http://www.w3.org/1999/xlink" width="443.3544921875" height="236"><defs/><g><text fill="#eeeeee" stroke="none" font-family="Arial" font-size="24px" font-style="normal" font-weight="normal" text-decoration="none" x="0" y="0">UNREGISTERED</text><text fill="#eeeeee" stroke="none" font-family="Arial" font-size="24px" font-style="normal" font-weight="normal" text-decoration="none" x="0" y="30">UNREGISTERED</text><text fill="#eeeeee" stroke="none" font-family="Arial" font-size="24px" font-style="normal" font-weight="normal" text-decoration="none" x="0" y="60">UNREGISTERED</text><text fill="#eeeeee" stroke="none" font-family="Arial" font-size="24px" font-style="normal" font-weight="normal" text-decoration="none" x="0" y="90">UNREGISTERED</text><text fill="#eeeeee" stroke="none" font-family="Arial" font-size="24px" font-style="normal" font-weight="normal" text-decoration="none" x="0" y="120">UNREGISTERED</text><text fill="#eeeeee" stroke="none" font-family="Arial" font-size="24px" font-style="normal" font-weight="normal" text-decoration="none" x="0" y="150">UNREGISTERED</text><text fill="#eeeeee" stroke="none" font-family="Arial" font-size="24px" font-style="normal" font-weight="normal" text-decoration="none" x="0" y="180">UNREGISTERED</text><text fill="#eeeeee" stroke="none" font-family="Arial" font-size="24px" font-style="normal" font-weight="normal" text-decoration="none" x="0" y="210">UNREGISTERED</text><text fill="#eeeeee" stroke="none" font-family="Arial" font-size="24px" font-style="normal" font-weight="normal" text-decoration="none" x="200" y="0">UNREGISTERED</text><text fill="#eeeeee" stroke="none" font-family="Arial" font-size="24px" font-style="normal" font-weight="normal" text-decoration="none" x="200" y="30">UNREGISTERED</text><text fill="#eeeeee" stroke="none" font-family="Arial" font-size="24px" font-style="normal" font-weight="normal" text-decoration="none" x="200" y="60">UNREGISTERED</text><text fill="#eeeeee" stroke="none" font-family="Arial" font-size="24px" font-style="normal" font-weight="normal" text-decoration="none" x="200" y="90">UNREGISTERED</text><text fill="#eeeeee" stroke="none" font-family="Arial" font-size="24px" font-style="normal" font-weight="normal" text-decoration="none" x="200" y="120">UNREGISTERED</text><text fill="#eeeeee" stroke="none" font-family="Arial" font-size="24px" font-style="normal" font-weight="normal" text-decoration="none" x="200" y="150">UNREGISTERED</text><text fill="#eeeeee" stroke="none" font-family="Arial" font-size="24px" font-style="normal" font-weight="normal" text-decoration="none" x="200" y="180">UNREGISTERED</text><text fill="#eeeeee" stroke="none" font-family="Arial" font-size="24px" font-style="normal" font-weight="normal" text-decoration="none" x="200" y="210">UNREGISTERED</text><text fill="#eeeeee" stroke="none" font-family="Arial" font-size="24px" font-style="normal" font-weight="normal" text-decoration="none" x="400" y="0">UNREGISTERED</text><text fill="#eeeeee" stroke="none" font-family="Arial" font-size="24px" font-style="normal" font-weight="normal" text-decoration="none" x="400" y="30">UNREGISTERED</text><text fill="#eeeeee" stroke="none" font-family="Arial" font-size="24px" font-style="normal" font-weight="normal" text-decoration="none" x="400" y="60">UNREGISTERED</text><text fill="#eeeeee" stroke="none" font-family="Arial" font-size="24px" font-style="normal" font-weight="normal" text-decoration="none" x="400" y="90">UNREGISTERED</text><text fill="#eeeeee" stroke="none" font-family="Arial" font-size="24px" font-style="normal" font-weight="normal" text-decoration="none" x="400" y="120">UNREGISTERED</text><text fill="#eeeeee" stroke="none" font-family="Arial" font-size="24px" font-style="normal" font-weight="normal" text-decoration="none" x="400" y="150">UNREGISTERED</text><text fill="#eeeeee" stroke="none" font-family="Arial" font-size="24px" font-style="normal" font-weight="normal" text-decoration="none" x="400" y="180">UNREGISTERED</text><text fill="#eeeeee" stroke="none" font-family="Arial" font-size="24px" font-style="normal" font-weight="normal" text-decoration="none" x="400" y="210">UNREGISTERED</text><g transform="translate(-246,-318) scale(1,1)"><rect fill="#C0C0C0" stroke="none" x="543" y="335" width="143.3544921875" height="24" opacity="0.2"/></g><g transform="translate(-246,-318) scale(1,1)"><rect fill="#ffffff" stroke="none" x="536" y="328" width="143.3544921875" height="24"/></g><g transform="translate(-246,-318) scale(1,1)"><path fill="none" stroke="#000000" d="M 536 328 L 679.3544921875 328 L 679.3544921875 352 L 536 352 L 536 328 Z Z" stroke-miterlimit="10"/></g><g transform="translate(-246,-318) scale(1,1)"><rect fill="#ffffff" stroke="none" x="536" y="328" width="143.3544921875" height="24"/></g><g transform="translate(-246,-318) scale(1,1)"><path fill="none" stroke="#000000" d="M 536 328 L 679.3544921875 328 L 679.3544921875 352 L 536 352 L 536 328 Z Z" stroke-miterlimit="10"/></g><g transform="translate(-246,-318) scale(1,1)"><g><path fill="none" stroke="none"/><text fill="#000000" stroke="none" font-family="Arial" font-size="13px" font-style="normal" font-weight="bold" text-decoration="none" x="540.5" y="346">Lucas: Administrador</text><path fill="none" stroke="#000000" d="M 674.8544921875 347.5 L 540.5 347.5" stroke-miterlimit="10"/></g></g><g transform="translate(-246,-318) scale(1,1)"><rect fill="#C0C0C0" stroke="none" x="415" y="423" width="121.68359375" height="24" opacity="0.2"/></g><g transform="translate(-246,-318) scale(1,1)"><rect fill="#ffffff" stroke="none" x="408" y="416" width="121.68359375" height="24"/></g><g transform="translate(-246,-318) scale(1,1)"><path fill="none" stroke="#000000" d="M 408 416 L 529.68359375 416 L 529.68359375 440 L 408 440 L 408 416 Z Z" stroke-miterlimit="10"/></g><g transform="translate(-246,-318) scale(1,1)"><rect fill="#ffffff" stroke="none" x="408" y="416" width="121.68359375" height="24"/></g><g transform="translate(-246,-318) scale(1,1)"><path fill="none" stroke="#000000" d="M 408 416 L 529.68359375 416 L 529.68359375 440 L 408 440 L 408 416 Z Z" stroke-miterlimit="10"/></g><g transform="translate(-246,-318) scale(1,1)"><g><path fill="none" stroke="none"/><text fill="#000000" stroke="none" font-family="Arial" font-size="13px" font-style="normal" font-weight="bold" text-decoration="none" x="412.5" y="434">Henrique: Usuário</text><path fill="none" stroke="#000000" d="M 525.18359375 435.5 L 412.5 435.5" stroke-miterlimit="10"/></g></g><g transform="translate(-246,-318) scale(1,1)"><rect fill="#C0C0C0" stroke="none" x="567" y="527" width="99.2890625" height="24" opacity="0.2"/></g><g transform="translate(-246,-318) scale(1,1)"><rect fill="#ffffff" stroke="none" x="560" y="520" width="99.2890625" height="24"/></g><g transform="translate(-246,-318) scale(1,1)"><path fill="none" stroke="#000000" d="M 560 520 L 659.2890625 520 L 659.2890625 544 L 560 544 L 560 520 Z Z" stroke-miterlimit="10"/></g><g transform="translate(-246,-318) scale(1,1)"><rect fill="#ffffff" stroke="none" x="560" y="520" width="99.2890625" height="24"/></g><g transform="translate(-246,-318) scale(1,1)"><path fill="none" stroke="#000000" d="M 560 520 L 659.2890625 520 L 659.2890625 544 L 560 544 L 560 520 Z Z" stroke-miterlimit="10"/></g><g transform="translate(-246,-318) scale(1,1)"><g><path fill="none" stroke="none"/><text fill="#000000" stroke="none" font-family="Arial" font-size="13px" font-style="normal" font-weight="bold" text-decoration="none" x="576.90966796875" y="538">GTA: Jogo</text><path fill="none" stroke="#000000" d="M 642.37939453125 539.5 L 576.90966796875 539.5" stroke-miterlimit="10"/></g></g><g transform="translate(-246,-318) scale(1,1)"><rect fill="#C0C0C0" stroke="none" x="263" y="335" width="129.6435546875" height="24" opacity="0.2"/></g><g transform="translate(-246,-318) scale(1,1)"><rect fill="#ffffff" stroke="none" x="256" y="328" width="129.6435546875" height="24"/></g><g transform="translate(-246,-318) scale(1,1)"><path fill="none" stroke="#000000" d="M 256 328 L 385.6435546875 328 L 385.6435546875 352 L 256 352 L 256 328 Z Z" stroke-miterlimit="10"/></g><g transform="translate(-246,-318) scale(1,1)"><rect fill="#ffffff" stroke="none" x="256" y="328" width="129.6435546875" height="24"/></g><g transform="translate(-246,-318) scale(1,1)"><path fill="none" stroke="#000000" d="M 256 328 L 385.6435546875 328 L 385.6435546875 352 L 256 352 L 256 328 Z Z" stroke-miterlimit="10"/></g><g transform="translate(-246,-318) scale(1,1)"><g><path fill="none" stroke="none"/><text fill="#000000" stroke="none" font-family="Arial" font-size="13px" font-style="normal" font-weight="bold" text-decoration="none" x="260.5" y="346">MasterCard: Cartão</text><path fill="none" stroke="#000000" d="M 381.1435546875 347.5 L 260.5 347.5" stroke-miterlimit="10"/></g></g><g transform="translate(-246,-318) scale(1,1)"><rect fill="#C0C0C0" stroke="none" x="263" y="527" width="128.20263671875" height="24" opacity="0.2"/></g><g transform="translate(-246,-318) scale(1,1)"><rect fill="#ffffff" stroke="none" x="256" y="520" width="128.20263671875" height="24"/></g><g transform="translate(-246,-318) scale(1,1)"><path fill="none" stroke="#000000" d="M 256 520 L 384.20263671875 520 L 384.20263671875 544 L 256 544 L 256 520 Z Z" stroke-miterlimit="10"/></g><g transform="translate(-246,-318) scale(1,1)"><rect fill="#ffffff" stroke="none" x="256" y="520" width="128.20263671875" height="24"/></g><g transform="translate(-246,-318) scale(1,1)"><path fill="none" stroke="#000000" d="M 256 520 L 384.20263671875 520 L 384.20263671875 544 L 256 544 L 256 520 Z Z" stroke-miterlimit="10"/></g><g transform="translate(-246,-318) scale(1,1)"><g><path fill="none" stroke="none"/><text fill="#000000" stroke="none" font-family="Arial" font-size="13px" font-style="normal" font-weight="bold" text-decoration="none" x="260.5" y="538">Mensal: Assinatura</text><path fill="none" stroke="#000000" d="M 379.70263671875 539.5 L 260.5 539.5" stroke-miterlimit="10"/></g></g><g transform="translate(-246,-318) scale(1,1)"><path fill="none" stroke="#000000" d="M 446 415 L 342 353" stroke-miterlimit="10"/></g><g transform="translate(-246,-318) scale(1,1)"><g><path fill="none" stroke="none"/><text fill="#000000" stroke="none" font-family="Arial" font-size="13px" font-style="normal" font-weight="normal" text-decoration="none" x="357.5" y="401">+adiciona</text></g></g><g transform="translate(-246,-318) scale(1,1)"><path fill="none" stroke="#000000" d="M 320 353 L 320 519" stroke-miterlimit="10"/></g><g transform="translate(-246,-318) scale(1,1)"><g><path fill="none" stroke="none"/><text fill="#000000" stroke="none" font-family="Arial" font-size="13px" font-style="normal" font-weight="normal" text-decoration="none" x="315.5" y="439">+paga</text></g></g><g transform="translate(-246,-318) scale(1,1)"><path fill="none" stroke="#000000" d="M 607 353 L 609 519" stroke-miterlimit="10"/></g><g transform="translate(-246,-318) scale(1,1)"><g><path fill="none" stroke="none"/><text fill="#000000" stroke="none" font-family="Arial" font-size="13px" font-style="normal" font-weight="normal" text-decoration="none" x="593.5" y="440">+adiciona</text></g></g><g transform="translate(-246,-318) scale(1,1)"><path fill="none" stroke="#000000" d="M 486 441 L 591 519" stroke-miterlimit="10"/></g><g transform="translate(-246,-318) scale(1,1)"><g><path fill="none" stroke="none"/><text fill="#000000" stroke="none" font-family="Arial" font-size="13px" font-style="normal" font-weight="normal" text-decoration="none" x="526.5" y="472">+baixa</text></g></g><g transform="translate(-246,-318) scale(1,1)"><path fill="none" stroke="#000000" d="M 385 532 L 559 532" stroke-miterlimit="10"/></g><g transform="translate(-246,-318) scale(1,1)"><g><path fill="none" stroke="none"/><text fill="#000000" stroke="none" font-family="Arial" font-size="13px" font-style="normal" font-weight="normal" text-decoration="none" x="452.5" y="522">+libera</text></g></g></g></svg>